<svg width="11" height="14" viewBox="0 0 11 14" fill="none" xmlns="http://www.w3.org/2000/svg">
<path d="M11 4.04567C11 3.10702 11 2.45036 11 2.38807C11 1.69095 10.5663 1.1238 10.0332 1.1238H9.9043V2.66902C9.9043 2.90176 9.76001 3.09044 9.58203 3.09044C9.40405 3.09044 9.25977 2.90176 9.25977 2.66902C9.25977 2.19593 9.25977 0.89252 9.25977 0.421424C9.25977 0.188686 9.11548 0 8.9375 0C8.75952 0 8.61523 0.188686 8.61523 0.421424V1.1238H6.4668V2.66902C6.4668 2.90176 6.32251 3.09044 6.14453 3.09044C5.96655 3.09044 5.82227 2.90176 5.82227 2.66902C5.82227 2.19593 5.82227 0.89252 5.82227 0.421424C5.82227 0.188686 5.67798 0 5.5 0C5.32202 0 5.17773 0.188686 5.17773 0.421424V1.1238H3.0293V2.66902C3.0293 2.90176 2.88501 3.09044 2.70703 3.09044C2.52905 3.09044 2.38477 2.90176 2.38477 2.66902C2.38477 2.19593 2.38477 0.89252 2.38477 0.421424C2.38477 0.188686 2.24048 0 2.0625 0C1.88452 0 1.74023 0.188686 1.74023 0.421424V1.1238H0.966797C0.433705 1.1238 0 1.69095 0 2.38807V4.04567H11Z" fill="#5C89CA"/>
<path d="M0 4.97283V11.7999C0 12.497 0.433705 13.0642 0.966797 13.0642H10.0332C10.5663 13.0642 11 12.497 11 11.7999C11 11.6194 11 7.67522 11 4.97283C10.7994 4.97283 0.110945 4.97283 0 4.97283ZM3.09375 10.8166H2.40625C2.22827 10.8166 2.08398 10.6279 2.08398 10.3952C2.08398 10.1624 2.22827 9.97373 2.40625 9.97373H3.09375C3.27173 9.97373 3.41602 10.1624 3.41602 10.3952C3.41602 10.6279 3.27173 10.8166 3.09375 10.8166ZM3.09375 9.0185H2.40625C2.22827 9.0185 2.08398 8.82981 2.08398 8.59708C2.08398 8.36434 2.22827 8.17565 2.40625 8.17565H3.09375C3.27173 8.17565 3.41602 8.36434 3.41602 8.59708C3.41602 8.82981 3.27173 9.0185 3.09375 9.0185ZM3.09375 7.22042H2.40625C2.22827 7.22042 2.08398 7.03174 2.08398 6.799C2.08398 6.56626 2.22827 6.37757 2.40625 6.37757H3.09375C3.27173 6.37757 3.41602 6.56626 3.41602 6.799C3.41602 7.03174 3.27173 7.22042 3.09375 7.22042ZM5.84375 10.8166H5.15625C4.97827 10.8166 4.83398 10.6279 4.83398 10.3952C4.83398 10.1624 4.97827 9.97373 5.15625 9.97373H5.84375C6.02173 9.97373 6.16602 10.1624 6.16602 10.3952C6.16602 10.6279 6.02173 10.8166 5.84375 10.8166ZM5.84375 9.0185H5.15625C4.97827 9.0185 4.83398 8.82981 4.83398 8.59708C4.83398 8.36434 4.97827 8.17565 5.15625 8.17565H5.84375C6.02173 8.17565 6.16602 8.36434 6.16602 8.59708C6.16602 8.82981 6.02173 9.0185 5.84375 9.0185ZM5.84375 7.22042H5.15625C4.97827 7.22042 4.83398 7.03174 4.83398 6.799C4.83398 6.56626 4.97827 6.37757 5.15625 6.37757H5.84375C6.02173 6.37757 6.16602 6.56626 6.16602 6.799C6.16602 7.03174 6.02173 7.22042 5.84375 7.22042ZM8.59375 10.8166H7.90625C7.72827 10.8166 7.58398 10.6279 7.58398 10.3952C7.58398 10.1624 7.72827 9.97373 7.90625 9.97373H8.59375C8.77173 9.97373 8.91602 10.1624 8.91602 10.3952C8.91602 10.6279 8.77173 10.8166 8.59375 10.8166ZM8.59375 9.0185H7.90625C7.72827 9.0185 7.58398 8.82981 7.58398 8.59708C7.58398 8.36434 7.72827 8.17565 7.90625 8.17565H8.59375C8.77173 8.17565 8.91602 8.36434 8.91602 8.59708C8.91602 8.82981 8.77173 9.0185 8.59375 9.0185ZM8.59375 7.22042H7.90625C7.72827 7.22042 7.58398 7.03174 7.58398 6.799C7.58398 6.56626 7.72827 6.37757 7.90625 6.37757H8.59375C8.77173 6.37757 8.91602 6.56626 8.91602 6.799C8.91602 7.03174 8.77173 7.22042 8.59375 7.22042Z" fill="#5C89CA"/>
</svg>
