<svg width="42" height="42" viewBox="0 0 42 42" fill="none" xmlns="http://www.w3.org/2000/svg">
<g clip-path="url(#clip0)">
<path d="M2.62498 2.85777C-0.675518 6.28602 -1.75005e-05 9.92777 -1.75005e-05 20.9913C-1.75005e-05 30.1788 -1.60302 39.389 6.78648 41.5573C9.40623 42.231 32.6182 42.231 35.2345 41.5538C38.7275 40.6525 41.5695 37.8193 41.958 32.879C42.0122 32.1895 42.0122 9.80527 41.9562 9.10177C41.5432 3.83952 38.304 0.80677 34.0357 0.19252C33.0575 0.0507702 32.8615 0.00877016 27.8425 2.01603e-05C10.0397 0.00877016 6.13723 -0.78398 2.62498 2.85777V2.85777Z" fill="url(#paint0_linear)"/>
<path d="M20.9967 5.49324C14.6424 5.49324 8.60841 4.92799 6.30366 10.843C5.35166 13.286 5.48991 16.4587 5.48991 21.0017C5.48991 24.9882 5.36216 28.735 6.30366 31.1587C8.60316 37.0772 14.6862 36.5102 20.9932 36.5102C27.0779 36.5102 33.3517 37.1437 35.6844 31.1587C36.6382 28.6912 36.4982 25.5657 36.4982 21.0017C36.4982 14.9432 36.8324 11.032 33.8942 8.09549C30.9192 5.12049 26.8959 5.49324 20.9897 5.49324H20.9967ZM19.6072 8.28799C32.8617 8.26699 34.5487 6.79349 33.6177 27.2632C33.2869 34.503 27.7744 33.7085 20.9984 33.7085C8.64341 33.7085 8.28816 33.355 8.28816 20.9947C8.28816 8.49099 9.26816 8.29499 19.6072 8.28449V8.28799ZM29.2742 10.8622C28.2469 10.8622 27.4139 11.6952 27.4139 12.7225C27.4139 13.7497 28.2469 14.5827 29.2742 14.5827C30.3014 14.5827 31.1344 13.7497 31.1344 12.7225C31.1344 11.6952 30.3014 10.8622 29.2742 10.8622V10.8622ZM20.9967 13.0375C16.5989 13.0375 13.0342 16.604 13.0342 21.0017C13.0342 25.3995 16.5989 28.9642 20.9967 28.9642C25.3944 28.9642 28.9574 25.3995 28.9574 21.0017C28.9574 16.604 25.3944 13.0375 20.9967 13.0375V13.0375ZM20.9967 15.8322C27.8304 15.8322 27.8392 26.1712 20.9967 26.1712C14.1647 26.1712 14.1542 15.8322 20.9967 15.8322Z" fill="white"/>
</g>
<defs>
<linearGradient id="paint0_linear" x1="2.70552" y1="39.3174" x2="41.7401" y2="5.53348" gradientUnits="userSpaceOnUse">
<stop stop-color="#FFDD55"/>
<stop offset="0.5" stop-color="#FF543E"/>
<stop offset="1" stop-color="#C837AB"/>
</linearGradient>
<clipPath id="clip0">
<rect width="42" height="42" fill="white"/>
</clipPath>
</defs>
</svg>
