<svg width="12" height="16" viewBox="0 0 12 16" fill="none" xmlns="http://www.w3.org/2000/svg">
<path d="M10.2378 2.73992C9.26682 1.06417 7.54207 0.0403906 5.6241 0.00126562C5.54223 -0.000421875 5.45982 -0.000421875 5.37791 0.00126562C3.45998 0.0403906 1.73523 1.06417 0.764168 2.73992C-0.228393 4.45279 -0.255549 6.51029 0.691512 8.24376L4.6591 15.5058C4.66088 15.5091 4.66266 15.5123 4.66451 15.5155C4.83907 15.8189 5.15179 16 5.50107 16C5.85032 16 6.16304 15.8188 6.33757 15.5155C6.33941 15.5123 6.34119 15.5091 6.34297 15.5058L10.3106 8.24376C11.2576 6.51029 11.2304 4.45279 10.2378 2.73992V2.73992ZM5.50101 7.25001C4.26035 7.25001 3.25101 6.24067 3.25101 5.00001C3.25101 3.75936 4.26035 2.75001 5.50101 2.75001C6.74166 2.75001 7.751 3.75936 7.751 5.00001C7.751 6.24067 6.74169 7.25001 5.50101 7.25001Z" fill="#5C89CA"/>
</svg>
