<svg width="54" height="54" viewBox="0 0 54 54" fill="none" xmlns="http://www.w3.org/2000/svg">
<path d="M49.7813 41.3438C49.1102 41.3445 48.4668 41.6115 47.9923 42.086C47.5177 42.5605 47.2508 43.2039 47.25 43.875C47.249 44.7698 46.8931 45.6277 46.2604 46.2604C45.6277 46.8931 44.7698 47.249 43.875 47.25H29.5566V46.999C29.5572 46.1577 29.2928 45.3376 28.8009 44.6551C28.309 43.9726 27.6147 43.4624 26.8164 43.1968L24.3527 42.3761L29.6516 29.7907C29.7994 29.4391 29.8933 29.0672 29.9301 28.6875H35.2635L36.7728 29.4421C36.89 29.5008 37.0191 29.5313 37.1501 29.5313H39.4704C40.1974 29.5304 40.8945 29.2413 41.4085 28.7272C41.9226 28.2131 42.2118 27.5161 42.2126 26.7891V24.4688C42.2126 24.245 42.1237 24.0304 41.9655 23.8721C41.8072 23.7139 41.5926 23.625 41.3689 23.625H39.8806L38.3712 22.8704C38.2541 22.8118 38.1249 22.7813 37.9939 22.7813C37.8629 22.7813 37.7338 22.8118 37.6166 22.8704L37.5706 22.8934L34.1969 20.9196C34.2856 20.7013 34.3605 20.4777 34.4213 20.25H35.3791L36.5328 20.4808C38.4688 20.8737 40.4817 20.5481 42.1951 19.5649L44.2758 20.952C44.393 21.0301 44.528 21.0777 44.6683 21.0903C44.8086 21.1029 44.9499 21.0801 45.0792 21.0241C45.2085 20.9681 45.3217 20.8806 45.4084 20.7696C45.4952 20.6586 45.5528 20.5277 45.576 20.3887L46.3837 15.543L46.8049 15.0164C47.3251 14.3672 47.7015 13.6149 47.9092 12.8093C48.1169 12.0038 48.1512 11.1633 48.0098 10.3435C47.8684 9.52364 47.5546 8.74319 47.0891 8.05372C46.6236 7.36425 46.017 6.78147 45.3094 6.34395C45.5206 5.83026 45.6018 5.27237 45.5457 4.71978C45.4897 4.16719 45.2981 3.63697 44.988 3.17617C44.6779 2.71536 44.2589 2.33821 43.7681 2.07817C43.2773 1.81813 42.7299 1.68323 42.1745 1.68545C41.6191 1.68767 41.0728 1.82693 40.5841 2.09089C40.0954 2.35484 39.6794 2.73533 39.373 3.19859C39.0666 3.66186 38.8792 4.19359 38.8276 4.74661C38.776 5.29963 38.8616 5.85685 39.0769 6.36884C38.7201 6.59374 38.3885 6.85643 38.0879 7.15237C38.0856 7.15469 38.083 7.1569 38.0807 7.15922C38.0721 7.16777 38.0632 7.17557 38.0546 7.18411L35.482 9.7565L29.618 3.24053C29.1642 2.73835 28.5586 2.39836 27.8935 2.27242C27.2285 2.14647 26.5406 2.24148 25.9346 2.54296L25.0985 2.96093C24.9031 3.05808 24.6878 3.10863 24.4695 3.10863C24.2512 3.10863 24.0359 3.05808 23.8405 2.96093L21.4711 1.77663C21.331 1.70654 21.1741 1.67686 21.018 1.69093C20.8619 1.70499 20.7129 1.76224 20.5875 1.85625L17.2125 4.3875C17.0912 4.47838 16.9967 4.60024 16.9388 4.74028C16.8809 4.88032 16.8617 5.03337 16.8834 5.18335C16.9051 5.33334 16.9667 5.47472 17.0619 5.59264C17.1571 5.71057 17.2823 5.80068 17.4243 5.85352C17.4623 5.86765 21.2459 7.27735 23.1472 7.9726C23.6054 8.13948 24.0964 8.19609 24.5804 8.13782C25.0645 8.07955 25.5281 7.90804 25.9335 7.63721C26.2043 7.45643 26.5293 7.37496 26.8534 7.40665C27.1774 7.43833 27.4805 7.58121 27.7112 7.81102L28.7975 8.89735C24.3659 8.29034 19.8546 8.68021 15.5928 10.0385L5.27133 4.00033L5.81714 2.90862C5.91516 2.70872 5.9302 2.47819 5.85898 2.26725C5.78777 2.05631 5.63607 1.88206 5.43694 1.78249C5.23782 1.68291 5.0074 1.66607 4.79591 1.73564C4.58443 1.80521 4.409 1.95554 4.30788 2.15389L3.81154 3.14645L2.95735 2.64727C2.7642 2.53426 2.53408 2.50261 2.31759 2.55928C2.10111 2.61595 1.916 2.75629 1.80299 2.94944C1.68999 3.14259 1.65834 3.37271 1.715 3.5892C1.77167 3.80568 1.91202 3.99079 2.10516 4.10379L3.05533 4.65961L2.62038 5.52941C2.5698 5.62862 2.53935 5.73686 2.5308 5.84789C2.52225 5.95891 2.53577 6.07054 2.57056 6.17632C2.60536 6.2821 2.66075 6.37994 2.73354 6.46421C2.80633 6.54848 2.89509 6.61751 2.99469 6.66732C3.09428 6.71712 3.20275 6.74672 3.31385 6.75441C3.42494 6.76209 3.53645 6.74771 3.64195 6.71209C3.74746 6.67647 3.84487 6.62032 3.92857 6.54687C4.01227 6.47342 4.08061 6.38413 4.12964 6.28415L4.51502 5.51349L13.5377 10.7913C12.4681 11.2857 11.5458 12.0503 10.8616 13.0096V13.0096V13.0103C10.0226 14.1859 9.57962 15.5981 9.59668 17.0423C9.61375 18.4865 10.09 19.8878 10.9565 21.0432L18.4982 30.5723L15.2816 41.8289L14.8799 42.4316C13.9951 43.7559 13.5236 45.3132 13.5251 46.9059V47.25H4.21876C3.54743 47.25 2.90359 47.5167 2.42889 47.9914C1.95419 48.4661 1.68751 49.1099 1.68751 49.7813C1.68751 50.4526 1.95419 51.0964 2.42889 51.5711C2.90359 52.0458 3.54743 52.3125 4.21876 52.3125H43.875C46.112 52.31 48.2566 51.4202 49.8384 49.8384C51.4202 48.2566 52.31 46.112 52.3125 43.875C52.3117 43.2039 52.0448 42.5605 51.5703 42.086C51.0957 41.6115 50.4523 41.3445 49.7813 41.3438V41.3438ZM27.8691 46.999V47.25H26.1816V46.9993C26.1823 46.0747 25.8628 45.1784 25.2774 44.4627L26.2827 44.7978C26.7449 44.9515 27.1468 45.2469 27.4316 45.642C27.7164 46.0372 27.8694 46.5119 27.8691 46.999V46.999ZM28.0969 29.1353L22.4235 42.6113L22.4217 42.6156L22.3325 42.8276L21.2738 42.4747C22.0255 39.8622 24.8928 31.6572 25.7668 29.1676C25.8232 29.0053 25.8684 28.8393 25.9021 28.6708C26.0123 28.6807 26.1236 28.6875 26.2357 28.6875H28.229C28.2017 28.8412 28.1574 28.9914 28.0969 29.1353ZM32.9063 11.8125H34.5938V16.8661C34.5301 16.3137 34.3461 15.7819 34.0545 15.3083C33.7629 14.8348 33.3709 14.431 32.9063 14.1254V11.8125ZM38.6276 8.99702L40.2276 10.9165L38.8946 12.2496L37.2949 10.3297L38.6276 8.99702ZM42.1335 17.4484L40.5251 16.2422C40.2637 16.0451 40.0515 15.7903 39.9052 15.4975C39.7588 15.2047 39.6822 14.882 39.6814 14.5547V13.8496L41.3689 12.1621L44.3944 15.1875L42.1335 17.4484ZM32.9314 17.2969V18.7619C32.9323 19.4807 32.7391 20.1863 32.3724 20.8043C32.3685 20.8107 32.364 20.8164 32.3604 20.8228C32.3567 20.8292 32.3544 20.8345 32.3512 20.8403C32.1071 21.2421 31.7943 21.5979 31.4272 21.8915L30.9148 22.3014L28.277 20.1912L28.463 20.0053C28.5422 19.927 28.6051 19.8337 28.648 19.7309C28.6909 19.628 28.7129 19.5177 28.7128 19.4063C28.7128 19.4049 28.7128 19.4035 28.7128 19.4021V17.2969C28.7128 16.7374 28.9351 16.2009 29.3306 15.8053C29.7262 15.4097 30.2628 15.1875 30.8222 15.1875C31.3816 15.1875 31.9182 15.4097 32.3137 15.8053C32.7093 16.2009 32.9316 16.7374 32.9316 17.2969H32.9314ZM24.5519 21.5301L23.6204 20.25H25.8319L24.5519 21.5301ZM24.8395 23.6289L27.0766 21.3918L29.5643 23.3824L29.0293 23.8104C28.8928 23.9197 28.7936 24.0686 28.7453 24.2367C28.6971 24.4048 28.7024 24.5837 28.7603 24.7487C28.8182 24.9137 28.9259 25.0566 29.0686 25.1577C29.2113 25.2588 29.3818 25.3131 29.5567 25.313H33.75V27.0005C33.75 27.0005 25.7051 26.9457 25.4665 26.8453C25.4532 26.8394 25.4399 26.8338 25.4264 26.8285C25.1348 26.6972 24.8793 26.497 24.6821 26.2452C24.4848 25.9934 24.3516 25.6975 24.2939 25.3829C24.2361 25.0683 24.2556 24.7444 24.3507 24.439C24.4457 24.1335 24.6134 23.8558 24.8395 23.6294V23.6289ZM39.3041 25.2234C39.4212 25.282 39.5504 25.3125 39.6814 25.3125H40.5251V26.7891C40.5248 27.0687 40.4136 27.3368 40.2159 27.5345C40.0181 27.7322 39.75 27.8434 39.4704 27.8438H37.3493L35.84 27.0891C35.7228 27.0305 35.5936 27 35.4626 27H35.4375V25.3125H36.3064C36.4374 25.3125 36.5666 25.282 36.6837 25.2234L37.9939 24.5683L39.3041 25.2234ZM35.4797 23.625H32.0625C32.0625 23.5991 32.0613 23.5734 32.0588 23.5477L32.482 23.2092C32.7938 22.9593 33.0786 22.6775 33.3319 22.3683L35.4797 23.625ZM36.8641 18.8262L36.3069 18.7147V11.7798L37.9944 13.8048V14.5547C37.9958 15.1439 38.1336 15.7248 38.3971 16.2518C38.6606 16.7788 39.0426 17.2376 39.5131 17.5922L40.6534 18.4474C39.457 18.9521 38.1363 19.0841 36.8638 18.8262H36.8641ZM44.1264 18.8242L43.5373 18.4315L44.3228 17.6459L44.1264 18.8242ZM45.5172 13.9236L45.3429 13.7494L45.341 13.7472L41.9928 10.3992L39.8769 7.86006C40.7052 7.30438 41.7045 7.06219 42.6953 7.17697C43.6861 7.29176 44.6036 7.756 45.2829 8.48633C45.9622 9.21667 46.359 10.1653 46.4018 11.1618C46.4447 12.1583 46.1309 13.1375 45.5168 13.9235L45.5172 13.9236ZM40.5 5.0625C40.4992 4.81415 40.5531 4.56866 40.6581 4.34357C40.763 4.11848 40.9164 3.91933 41.1072 3.76034C41.298 3.60134 41.5215 3.48642 41.7619 3.42378C42.0022 3.36114 42.2534 3.35231 42.4975 3.39794C42.7416 3.44357 42.9727 3.54252 43.1742 3.68773C43.3757 3.83295 43.5426 4.02085 43.6631 4.23802C43.7836 4.45519 43.8547 4.69628 43.8712 4.94409C43.8878 5.19189 43.8495 5.4403 43.759 5.67159C42.7306 5.39322 41.6462 5.39741 40.62 5.68372C40.5411 5.4861 40.5004 5.2753 40.5 5.0625V5.0625ZM24.9939 6.23511C24.8095 6.3582 24.5988 6.43615 24.3787 6.46264C24.1586 6.48914 23.9354 6.46344 23.7271 6.38761C22.5791 5.96753 20.7415 5.2861 19.4612 4.81033L21.1829 3.51918L23.085 4.47019C23.515 4.68392 23.9886 4.79515 24.4688 4.79515C24.9489 4.79515 25.4225 4.68392 25.8525 4.47019L26.6885 4.05222C26.9639 3.9152 27.2767 3.87202 27.579 3.92928C27.8813 3.98654 28.1566 4.14109 28.3629 4.36936L33.543 10.125H32.412L31.8713 9.58427L31.8699 9.5829L28.9045 6.61743C28.3971 6.11185 27.7303 5.7975 27.0175 5.72781C26.3046 5.65811 25.5896 5.83736 24.9939 6.23511V6.23511ZM29.9198 10.7877L30.8658 10.9653L31.2188 11.3182V13.5211C30.2437 13.4187 29.2668 13.6975 28.4926 14.299C27.7184 14.9006 27.2069 15.7783 27.0652 16.7484L17.6017 11.213C21.6269 10.1698 25.8322 10.0246 29.9198 10.7877V10.7877ZM13.2557 12.9257C13.6525 12.6173 14.0922 12.3686 14.561 12.1874C14.84 12.0804 15.1215 11.9791 15.4025 11.8816L26.8237 18.5625H22.1855L16.1663 15.1491L12.8557 13.2718C12.9829 13.1496 13.1163 13.0341 13.2555 12.9257H13.2557ZM20.0796 29.8348L12.3061 20.0306C11.7317 19.2652 11.3837 18.3538 11.3016 17.4004C11.2196 16.4469 11.4068 15.4895 11.842 14.6372L14.6993 16.2575L21.3875 20.0502L23.3598 22.7608C23.0424 23.1639 22.8131 23.6291 22.6869 24.1264C22.5607 24.6236 22.5404 25.1419 22.6271 25.6475C22.7139 26.1532 22.9059 26.635 23.1907 27.0617C23.4755 27.4884 23.8467 27.8506 24.2803 28.1248C24.2639 28.2895 24.2282 28.4517 24.1737 28.608C23.2923 31.1181 20.3927 39.4166 19.6408 42.0436L17.1183 41.5392L20.2429 30.607C20.2808 30.4748 20.2857 30.3353 20.2572 30.2007C20.2288 30.0661 20.1679 29.9405 20.0798 29.8348H20.0796ZM15.2126 46.9055C15.2115 45.646 15.5845 44.4145 16.2844 43.3673L16.4454 43.1258L18.8553 43.6076C18.8619 43.6091 18.8686 43.6104 18.8753 43.6117L20.0586 43.8483L22.9077 44.7975C23.37 44.9512 23.7721 45.2466 24.0569 45.6417C24.3417 46.0369 24.4947 46.5118 24.4943 46.9989V47.25H15.213L15.2126 46.9055ZM43.875 50.625H4.21876C3.99498 50.625 3.78037 50.5361 3.62214 50.3779C3.4639 50.2196 3.37501 50.005 3.37501 49.7813C3.37501 49.5575 3.4639 49.3429 3.62214 49.1846C3.78037 49.0264 3.99498 48.9375 4.21876 48.9375H43.875C45.2172 48.936 46.504 48.4021 47.453 47.453C48.4021 46.504 48.936 45.2172 48.9375 43.875C48.9375 43.6512 49.0264 43.4366 49.1846 43.2784C49.3429 43.1202 49.5575 43.0313 49.7813 43.0313C50.005 43.0313 50.2196 43.1202 50.3779 43.2784C50.5361 43.4366 50.625 43.6512 50.625 43.875C50.623 45.6646 49.9112 47.3803 48.6458 48.6458C47.3803 49.9112 45.6646 50.623 43.875 50.625Z" fill="black" fill-opacity="0.4"/>
<path d="M11.8125 37.125C11.5887 37.125 11.3741 37.2139 11.2159 37.3721C11.0576 37.5304 10.9688 37.745 10.9688 37.9688C10.9688 38.1925 11.0576 38.4071 11.2159 38.5654C11.3741 38.7236 11.5887 38.8125 11.8125 38.8125H13.5C13.7238 38.8125 13.9384 38.7236 14.0966 38.5654C14.2549 38.4071 14.3438 38.1925 14.3438 37.9688C14.3438 37.745 14.2549 37.5304 14.0966 37.3721C13.9384 37.2139 13.7238 37.125 13.5 37.125H11.8125Z" fill="black" fill-opacity="0.4"/>
<path d="M2.53125 37.125C2.30747 37.125 2.09286 37.2139 1.93463 37.3721C1.77639 37.5304 1.6875 37.745 1.6875 37.9688C1.6875 38.1925 1.77639 38.4071 1.93463 38.5654C2.09286 38.7236 2.30747 38.8125 2.53125 38.8125H8.4375C8.66128 38.8125 8.87589 38.7236 9.03412 38.5654C9.19236 38.4071 9.28125 38.1925 9.28125 37.9688C9.28125 37.745 9.19236 37.5304 9.03412 37.3721C8.87589 37.2139 8.66128 37.125 8.4375 37.125H2.53125Z" fill="black" fill-opacity="0.4"/>
<path d="M8.4375 32.0625C8.4375 32.2863 8.52639 32.5009 8.68463 32.6591C8.84286 32.8174 9.05747 32.9062 9.28125 32.9062H14.3438C14.5675 32.9062 14.7821 32.8174 14.9404 32.6591C15.0986 32.5009 15.1875 32.2863 15.1875 32.0625C15.1875 31.8387 15.0986 31.6241 14.9404 31.4659C14.7821 31.3076 14.5675 31.2188 14.3438 31.2188H9.28125C9.05747 31.2188 8.84286 31.3076 8.68463 31.4659C8.52639 31.6241 8.4375 31.8387 8.4375 32.0625Z" fill="black" fill-opacity="0.4"/>
<path d="M2.53125 32.9062H5.90625C6.13003 32.9062 6.34464 32.8174 6.50287 32.6591C6.66111 32.5009 6.75 32.2863 6.75 32.0625C6.75 31.8387 6.66111 31.6241 6.50287 31.4659C6.34464 31.3076 6.13003 31.2188 5.90625 31.2188H2.53125C2.30747 31.2188 2.09286 31.3076 1.93463 31.4659C1.77639 31.6241 1.6875 31.8387 1.6875 32.0625C1.6875 32.2863 1.77639 32.5009 1.93463 32.6591C2.09286 32.8174 2.30747 32.9062 2.53125 32.9062V32.9062Z" fill="black" fill-opacity="0.4"/>
<path d="M10.9688 27.8438C11.1925 27.8438 11.4071 27.7549 11.5654 27.5966C11.7236 27.4384 11.8125 27.2238 11.8125 27C11.8125 26.7762 11.7236 26.5616 11.5654 26.4034C11.4071 26.2451 11.1925 26.1562 10.9688 26.1562H10.125C9.90122 26.1562 9.68661 26.2451 9.52838 26.4034C9.37014 26.5616 9.28125 26.7762 9.28125 27C9.28125 27.2238 9.37014 27.4384 9.52838 27.5966C9.68661 27.7549 9.90122 27.8438 10.125 27.8438H10.9688Z" fill="black" fill-opacity="0.4"/>
<path d="M6.75 26.1562H2.53125C2.30747 26.1562 2.09286 26.2451 1.93463 26.4034C1.77639 26.5616 1.6875 26.7762 1.6875 27C1.6875 27.2238 1.77639 27.4384 1.93463 27.5966C2.09286 27.7549 2.30747 27.8438 2.53125 27.8438H6.75C6.97378 27.8438 7.18839 27.7549 7.34662 27.5966C7.50486 27.4384 7.59375 27.2238 7.59375 27C7.59375 26.7762 7.50486 26.5616 7.34662 26.4034C7.18839 26.2451 6.97378 26.1562 6.75 26.1562V26.1562Z" fill="black" fill-opacity="0.4"/>
</svg>
