<svg width="76" height="87" viewBox="0 0 76 87" fill="none" xmlns="http://www.w3.org/2000/svg">
<path d="M74.5175 61.1946L65.6975 56.0929L73.3409 51.5775C74.7507 50.7446 75.2197 48.9245 74.3883 47.5121C73.557 46.1001 71.7407 45.6303 70.3305 46.4627L59.8016 52.6827L43.9265 43.4998L59.7989 34.3185L70.3309 40.5377C70.8031 40.8167 71.3215 40.949 71.8328 40.949C72.8474 40.949 73.8356 40.4264 74.3883 39.4871C75.2193 38.0747 74.7499 36.2546 73.3401 35.4217L65.6955 30.9079L74.5175 25.805C75.9348 24.9852 76.4204 23.1694 75.6021 21.7495C74.7838 20.3292 72.9715 19.8427 71.5542 20.6629L62.7341 25.765L62.6539 16.8738C62.6393 15.2342 61.2967 13.9093 59.6641 13.9319C58.0276 13.9465 56.7127 15.2877 56.7277 16.9273L56.8379 29.1752L40.9635 38.3577V19.9943L51.6066 13.9679C53.0314 13.1612 53.5336 11.3502 52.7284 9.92234C51.9231 8.49491 50.1151 7.99139 48.6903 8.79853L40.9635 13.1738V2.96886C40.9635 1.32926 39.6368 0 38.0002 0C36.3637 0 35.0369 1.32926 35.0369 2.96886V13.1738L27.3101 8.79892C25.8845 7.99179 24.0777 8.49491 23.272 9.92274C22.4668 11.3502 22.969 13.1616 24.3938 13.9683L35.0365 19.9947V38.3577L19.1621 29.1752L19.2723 16.9273C19.2874 15.2877 17.9724 13.9465 16.3359 13.9319C16.3268 13.9319 16.3181 13.9319 16.3086 13.9319C14.6847 13.9319 13.3607 15.2433 13.3461 16.8742L13.2659 25.765L4.4458 20.6629C3.02854 19.8427 1.21617 20.3296 0.397892 21.7495C-0.420383 23.1694 0.065208 24.9852 1.48247 25.805L10.3041 30.9079L2.65832 35.4225C1.24857 36.255 0.779174 38.0751 1.61009 39.4879C2.16285 40.4272 3.15103 40.9497 4.16607 40.9497C4.67734 40.9497 5.19533 40.8171 5.66788 40.5385L16.2011 34.3193L32.0739 43.5006L16.1984 52.6835L5.66788 46.4623C4.25892 45.6299 2.44141 46.0993 1.61009 47.5117C0.778779 48.9241 1.24778 50.7442 2.65753 51.5767L10.3021 56.0925L1.48208 61.1942C0.0648131 62.014 -0.420778 63.8298 0.397496 65.2497C0.946306 66.2021 1.94238 66.7345 2.96651 66.7345C3.46909 66.7345 3.97878 66.6063 4.44541 66.3363L13.2655 61.2342L13.3457 70.1258C13.3603 71.7563 14.6843 73.0681 16.3082 73.0681C16.3173 73.0681 16.3264 73.0681 16.3355 73.0677C17.972 73.0531 19.287 71.7119 19.2719 70.0723L19.1617 57.824L35.0365 48.6415V67.0053L24.3938 73.0317C22.969 73.8384 22.4668 75.6494 23.272 77.0773C23.8169 78.0431 24.8209 78.5858 25.8545 78.5858C26.3484 78.5858 26.8494 78.4619 27.3101 78.2011L35.0369 73.8262V84.0311C35.0369 85.6707 36.3637 87 38.0002 87C39.6368 87 40.9635 85.6707 40.9635 84.0311V73.8262L48.6903 78.2011C49.151 78.4619 49.6516 78.5858 50.1459 78.5858C51.1795 78.5858 52.1835 78.0431 52.7284 77.0773C53.5336 75.6498 53.0314 73.8384 51.6066 73.0317L40.9635 67.0053V48.6419L56.8379 57.824L56.7249 70.0719C56.7095 71.7115 58.024 73.0531 59.6606 73.0681C59.6701 73.0685 59.6792 73.0685 59.6886 73.0685C61.3121 73.0685 62.6362 71.7571 62.6512 70.127L62.7334 61.2342L71.5546 66.3367C72.0212 66.6067 72.5309 66.7349 73.0335 66.7349C74.0576 66.7349 75.0537 66.2021 75.6025 65.2501C76.4208 63.8302 75.9352 62.0144 74.5175 61.1946Z" fill="white" fill-opacity="0.7"/>
</svg>
